<?xml version="1.0" encoding="utf-8"?>
<!-- Generator: Adobe Illustrator 25.3.1, SVG Export Plug-In . SVG Version: 6.00 Build 0)  -->
<svg version="1.1" id="Calque_1" xmlns="http://www.w3.org/2000/svg" xmlns:xlink="http://www.w3.org/1999/xlink" x="0px" y="0px"
	 viewBox="0 0 500 500" style="enable-background:new 0 0 500 500;" xml:space="preserve">
<style type="text/css">
	.st0{fill:#078E3E;}
	.st1{fill:#0A9E46;}
</style>
<path class="st0" d="M179.7,98.2c-11.7,6.5-24.8,10.4-35.6,18.8c-28.6,22.2-43.5,50.9-44.3,87.4c-1.6,72.8,26.9,130.4,88.3,169.4
	c55.1,35,114,38.8,174.8,14.3c41.3-16.6,70.1-46.5,92.1-84c1.4-2.4,2.1-5.2,4.9-6.5c0.8,3.6-0.2,6.7-1.5,10.1
	c-45,115.6-176.1,187.2-297.8,162.6c-88.5-17.9-151.6-97-150.5-188.9c1.1-89.5,67.1-167.6,155.1-183.1
	C170.1,97.4,174.9,97.1,179.7,98.2z"/>
<path class="st1" d="M489,90.5c-0.9-14.6-3.2-29-8.8-42.6C470,23.2,451.6,17.5,431,34.7c-27.7,23.1-59.9,35.5-94,44.6
	c-51.6,13.7-104.7,14.1-157.3,19c-11.7,6.5-24.8,10.4-35.6,18.8c-28.6,22.2-43.5,50.9-44.3,87.4c-1.6,72.8,26.9,130.4,88.3,169.4
	c55.1,35,114,38.8,174.8,14.3c41.3-16.6,70.1-46.5,92.1-84c1.4-2.4,2.1-5.2,4.9-6.5c7.4-10.4,9.6-23.1,12-34.9
	C483,205.9,492.7,148.8,489,90.5z"/>
</svg>
